HIERARCHY
ROOT Hips
{
	OFFSET 0.000000 0.000000 0.000000
	CHANNELS 6 Xposition Yposition Zposition Xrotation Yrotation Zrotation
	JOINT LeftUpLeg_virtual
	{
		OFFSET 0.000000 0.000000 0.000000
		CHANNELS 3 Xrotation Yrotation Zrotation
		JOINT LeftUpLeg
		{
			OFFSET 15.427100 -6.655098 0.678600
			CHANNELS 3 Xrotation Yrotation Zrotation
			JOINT LeftLeg
			{
				OFFSET 4.081073 -39.591068 13.024000
				CHANNELS 3 Xrotation Yrotation Zrotation
				JOINT LeftFoot
				{
					OFFSET -4.081074 -37.707932 -15.979700
					CHANNELS 3 Xrotation Yrotation Zrotation
					JOINT LeftToeBase
					{
						OFFSET 5.346399 -15.068900 20.645000
						CHANNELS 3 Xrotation Yrotation Zrotation
						JOINT LeftToe_End
						{
							OFFSET 2.754700 0.931300 11.300900
							CHANNELS 3 Xrotation Yrotation Zrotation
							End Site
							{
								OFFSET 0 0 0
							}
						}
					}
				}
			}
		}
	}
	JOINT RightUpLeg_virtual
	{
		OFFSET 0.000000 0.000000 0.000000
		CHANNELS 3 Xrotation Yrotation Zrotation
		JOINT RightUpLeg
		{
			OFFSET -15.569500 -6.655098 0.678600
			CHANNELS 3 Xrotation Yrotation Zrotation
			JOINT RightLeg
			{
				OFFSET -4.081825 -39.591045 13.023800
				CHANNELS 3 Xrotation Yrotation Zrotation
				JOINT RightFoot
				{
					OFFSET 4.081824 -37.707954 -15.979600
					CHANNELS 3 Xrotation Yrotation Zrotation
					JOINT RightToeBase
					{
						OFFSET -5.346400 -15.068900 20.645000
						CHANNELS 3 Xrotation Yrotation Zrotation
						JOINT RightToe_End
						{
							OFFSET -2.754700 0.931300 11.300900
							CHANNELS 3 Xrotation Yrotation Zrotation
							End Site
							{
								OFFSET 0 0 0
							}
						}
					}
				}
			}
		}
	}
	JOINT Spine_virtual
	{
		OFFSET 0.000000 0.000000 0.000000
		CHANNELS 3 Xrotation Yrotation Zrotation
		JOINT Spine
		{
			OFFSET -0.279200 12.230698 -2.892100
			CHANNELS 3 Xrotation Yrotation Zrotation
			JOINT Spine1
			{
				OFFSET -0.232667 10.192268 -1.242267
				CHANNELS 3 Xrotation Yrotation Zrotation
				JOINT Spine1_split
				{
					OFFSET -0.232667 10.192268 -1.242267
					CHANNELS 3 Xrotation Yrotation Zrotation
					JOINT Spine2
					{
						OFFSET -0.232667 10.192268 -1.242267
						CHANNELS 3 Xrotation Yrotation Zrotation
						JOINT Neck_virtual
						{
							OFFSET 0.000000 0.000000 0.000000
							CHANNELS 3 Xrotation Yrotation Zrotation
							JOINT Neck
							{
								OFFSET -0.418800 17.814194 8.416900
								CHANNELS 3 Xrotation Yrotation Zrotation
								JOINT Head
								{
									OFFSET 0.000000 7.031097 3.806800
									CHANNELS 3 Xrotation Yrotation Zrotation
									JOINT HeadTop_End
									{
										OFFSET 0.000000 24.646606 12.978600
										CHANNELS 3 Xrotation Yrotation Zrotation
										End Site
										{
											OFFSET 0 0 0
										}
									}
								}
							}
						}
						JOINT LeftShoulder_virtual
						{
							OFFSET 0.000000 0.000000 0.000000
							CHANNELS 3 Xrotation Yrotation Zrotation
							JOINT LeftShoulder
							{
								OFFSET 8.476499 7.247704 -3.868750
								CHANNELS 3 Xrotation Yrotation Zrotation
								JOINT LeftShoulder_split
								{
									OFFSET 8.476499 7.247704 -3.868750
									CHANNELS 3 Xrotation Yrotation Zrotation
									JOINT LeftArm
									{
										OFFSET 9.308998 -2.777710 0.208600
										CHANNELS 3 Xrotation Yrotation Zrotation
										JOINT LeftForeArm
										{
											OFFSET 29.972298 0.000000 0.000000
											CHANNELS 3 Xrotation Yrotation Zrotation
											JOINT LeftHand
											{
												OFFSET 26.026505 0.000000 0.000000
												CHANNELS 3 Xrotation Yrotation Zrotation
												End Site
												{
													OFFSET 0 0 0
												}
											}
										}
									}
								}
							}
						}
						JOINT RightShoulder_virtual
						{
							OFFSET 0.000000 0.000000 0.000000
							CHANNELS 3 Xrotation Yrotation Zrotation
							JOINT RightShoulder
							{
								OFFSET -7.570500 7.247704 -3.868750
								CHANNELS 3 Xrotation Yrotation Zrotation
								JOINT RightShoulder_split
								{
									OFFSET -7.570500 7.247704 -3.868750
									CHANNELS 3 Xrotation Yrotation Zrotation
									JOINT RightArm
									{
										OFFSET -9.308998 -2.777710 0.208500
										CHANNELS 3 Xrotation Yrotation Zrotation
										JOINT RightForeArm
										{
											OFFSET -29.972300 0.000000 0.000000
											CHANNELS 3 Xrotation Yrotation Zrotation
											JOINT RightHand
											{
												OFFSET -26.026505 0.000000 0.000000
												CHANNELS 3 Xrotation Yrotation Zrotation
												End Site
												{
													OFFSET 0 0 0
												}
											}
										}
									}
								}
							}
						}
					}
				}
			}
		}
	}
}
MOTION
Frames: 4
Frame Time: 0.03333333
11.117251 95.923782 -4.931202 0.000000 0.000000 0.000000 -0.529913 -18.526637 -2.199132 -8.994844 6.448560 0.226288 17.950205 8.449116 2.314573 -10.150302 19.717001 -0.207940 -10.703379 0.000010 0.000002 0.000000 0.000000 0.000000 -0.529913 -18.526637 -2.199132 -13.101502 -7.486143 -11.542521 14.297239 2.768104 2.534393 -11.696038 -3.885336 7.137443 -8.438116 -0.000012 0.000002 0.000000 0.000000 0.000000 -0.529913 -18.526637 -2.199132 4.471916 1.681133 -2.143788 0.263398 0.569444 -0.234719 0.000000 0.000000 0.000000 0.000000 0.000000 0.000000 0.259934 0.575305 -0.235203 -0.614420 0.259444 3.053835 11.190386 11.650974 10.196007 0.000000 0.000000 0.000000 0.259934 0.575305 -0.235203 2.655927 -4.173618 -12.024668 0.000000 0.000000 0.000000 -11.354768 -17.200412 -60.369214 0.000008 -14.732015 0.000012 0.000000 0.000000 0.000000 0.259934 0.575305 -0.235203 2.178416 0.469370 15.702948 0.000000 0.000000 0.000000 6.014224 -0.860583 63.957775 -0.000006 14.800960 -0.000012 0.000000 0.000000 0.000000 
11.671961 95.944290 -4.695263 0.000000 0.000000 0.000000 -0.399866 -19.190236 -2.440166 -9.016676 6.399865 0.034985 17.917420 8.448904 2.361002 -10.243177 20.377016 0.140098 -10.632976 -0.000003 -0.000000 0.000000 0.000000 0.000000 -0.399866 -19.190236 -2.440166 -13.289280 -7.377718 -11.459019 14.082119 3.155427 2.598817 -11.838857 -3.903181 6.853365 -8.407007 0.000011 0.000002 0.000000 0.000000 0.000000 -0.399866 -19.190236 -2.440166 4.343773 1.230629 -2.239873 0.212745 0.451139 -0.248039 0.000000 0.000000 0.000000 0.000000 0.000000 0.000000 0.209997 0.457548 -0.249457 -0.676047 0.363724 3.241257 11.273845 13.135225 10.728865 0.000000 0.000000 0.000000 0.209997 0.457548 -0.249457 2.666470 -4.458574 -11.991963 0.000000 0.000000 0.000000 -11.925376 -18.438342 -60.942616 0.000002 -15.296897 0.000005 0.000000 0.000000 0.000000 0.209997 0.457548 -0.249457 2.229754 0.128997 15.927381 0.000000 0.000000 0.000000 5.674413 -0.408643 64.436940 0.000000 15.408087 0.000014 0.000000 0.000000 0.000000 
12.166447 95.984894 -4.475067 0.000000 0.000000 0.000000 -0.219791 -19.774818 -2.641030 -9.068422 6.370897 -0.110199 17.804172 8.445665 2.379946 -10.233538 20.943640 0.446480 -10.562543 -0.000002 -0.000000 0.000000 0.000000 0.000000 -0.219791 -19.774818 -2.641030 -13.438593 -7.293456 -11.410544 13.829963 3.323487 2.620786 -12.036739 -3.951728 6.705589 -8.375870 -0.000001 -0.000001 0.000000 0.000000 0.000000 -0.219791 -19.774818 -2.641030 4.207713 0.704019 -2.402423 0.165080 0.312362 -0.289361 0.000000 0.000000 0.000000 0.000000 0.000000 0.000000 0.163354 0.319514 -0.292051 -0.743324 0.449651 3.455309 11.434277 14.520115 11.315077 0.000000 0.000000 0.000000 0.163354 0.319514 -0.292051 2.633635 -4.716143 -11.762448 0.000000 0.000000 0.000000 -12.145290 -19.959023 -61.514623 -0.000011 -16.226675 -0.000003 0.000000 0.000000 0.000000 0.163354 0.319514 -0.292051 2.301188 -0.222087 16.229416 0.000000 0.000000 0.000000 5.160324 0.078142 64.897794 -0.000001 15.935550 0.000021 0.000000 0.000000 0.000000 
12.610584 96.054718 -4.266090 0.000000 0.000000 0.000000 0.092373 -20.320603 -2.784767 -9.228894 6.301955 -0.268709 17.642385 8.444160 2.447281 -10.260936 21.533403 0.735956 -10.492244 -0.000005 -0.000001 0.000000 0.000000 0.000000 0.092373 -20.320603 -2.784767 -13.651186 -7.206053 -11.348370 13.501382 3.399778 2.638137 -12.164104 -4.004740 6.564205 -8.344808 -0.000003 -0.000008 0.000000 0.000000 0.000000 0.092373 -20.320603 -2.784767 3.983879 0.154969 -2.644127 0.108365 0.169809 -0.345939 0.000000 0.000000 0.000000 0.000000 0.000000 0.000000 0.107951 0.177820 -0.350155 -0.816816 0.513499 3.692737 11.709284 15.764152 11.871390 0.000000 0.000000 0.000000 0.107951 0.177820 -0.350155 2.588616 -4.869841 -11.506932 0.000000 0.000000 0.000000 -12.196940 -21.829834 -61.937207 -0.000004 -17.471477 0.000001 0.000000 0.000000 0.000000 0.107951 0.177820 -0.350155 2.389268 -0.693198 16.609290 0.000000 0.000000 0.000000 4.537146 0.660909 65.259555 -0.000001 16.375635 0.000024 0.000000 0.000000 0.000000 
